<svg width="15" height="32" viewBox="0 0 15 32" fill="none" xmlns="http://www.w3.org/2000/svg">
<path d="M8.5 1.04312C8.5 0.490837 8.05228 0.0431214 7.5 0.0431213C6.94772 0.0431213 6.5 0.490837 6.5 1.04312L8.5 1.04312ZM6.79289 30.7502C7.18342 31.1408 7.81658 31.1408 8.20711 30.7502L14.5711 24.3863C14.9616 23.9957 14.9616 23.3626 14.5711 22.9721C14.1805 22.5815 13.5474 22.5815 13.1569 22.9721L7.5 28.6289L1.84314 22.9721C1.45262 22.5815 0.819456 22.5815 0.428931 22.9721C0.0384068 23.3626 0.0384068 23.9957 0.428931 24.3863L6.79289 30.7502ZM6.5 1.04312L6.5 30.0431L8.5 30.0431L8.5 1.04312L6.5 1.04312Z" fill="white"/>
</svg>
